<svg width="19" height="19" viewBox="0 0 19 19" fill="none" xmlns="http://www.w3.org/2000/svg">
<path d="M14.6056 9.62463H9.48682V4.50588C9.48682 4.06713 9.19432 3.77463 8.75557 3.77463C5.09932 3.77463 2.17432 6.69963 2.17432 10.3559C2.17432 14.0121 5.09932 16.9371 8.75557 16.9371C12.4118 16.9371 15.3368 14.0121 15.3368 10.3559C15.3368 9.91713 15.0443 9.62463 14.6056 9.62463ZM9.48682 15.4015C6.70807 15.8403 4.07557 13.8659 3.70994 11.0871C3.27119 8.30838 5.24557 5.67588 8.02432 5.31026V10.3559C8.02432 10.7946 8.31682 11.0871 8.75557 11.0871H13.8012C13.5087 13.354 11.7537 15.109 9.48682 15.4015ZM11.6806 2.31213C11.2418 2.31213 10.9493 2.60463 10.9493 3.04338V7.43088C10.9493 7.86963 11.2418 8.16213 11.6806 8.16213H16.0681C16.5068 8.16213 16.7993 7.86963 16.7993 7.43088C16.7993 4.57901 14.5324 2.31213 11.6806 2.31213ZM12.4118 6.69963V3.84776C13.8743 4.14026 14.9712 5.23713 15.2637 6.69963H12.4118Z" fill="#A4B4CB"/>
</svg>
