<svg width="19" height="19" viewBox="0 0 19 19" fill="none" xmlns="http://www.w3.org/2000/svg">
<path d="M9.48682 5.18702C9.29288 5.18702 9.10688 5.26407 8.96974 5.4012C8.83261 5.53834 8.75557 5.72433 8.75557 5.91827V13.2308C8.75557 13.4247 8.83261 13.6107 8.96974 13.7478C9.10688 13.885 9.29288 13.962 9.48682 13.962C9.68076 13.962 9.86675 13.885 10.0039 13.7478C10.141 13.6107 10.2181 13.4247 10.2181 13.2308V5.91827C10.2181 5.72433 10.141 5.53834 10.0039 5.4012C9.86675 5.26407 9.68076 5.18702 9.48682 5.18702ZM5.83057 9.57452C5.63663 9.57452 5.45063 9.65157 5.31349 9.7887C5.17636 9.92584 5.09932 10.1118 5.09932 10.3058V13.2308C5.09932 13.4247 5.17636 13.6107 5.31349 13.7478C5.45063 13.885 5.63663 13.962 5.83057 13.962C6.02451 13.962 6.2105 13.885 6.34764 13.7478C6.48477 13.6107 6.56182 13.4247 6.56182 13.2308V10.3058C6.56182 10.1118 6.48477 9.92584 6.34764 9.7887C6.2105 9.65157 6.02451 9.57452 5.83057 9.57452ZM13.1431 8.11202C12.9491 8.11202 12.7631 8.18907 12.626 8.3262C12.4889 8.46334 12.4118 8.64933 12.4118 8.84327V13.2308C12.4118 13.4247 12.4889 13.6107 12.626 13.7478C12.7631 13.885 12.9491 13.962 13.1431 13.962C13.337 13.962 13.523 13.885 13.6601 13.7478C13.7973 13.6107 13.8743 13.4247 13.8743 13.2308V8.84327C13.8743 8.64933 13.7973 8.46334 13.6601 8.3262C13.523 8.18907 13.337 8.11202 13.1431 8.11202ZM14.6056 2.26202H4.36807C3.78625 2.26202 3.22826 2.49315 2.81685 2.90456C2.40544 3.31597 2.17432 3.87396 2.17432 4.45577V14.6933C2.17432 15.2751 2.40544 15.8331 2.81685 16.2445C3.22826 16.6559 3.78625 16.887 4.36807 16.887H14.6056C15.1874 16.887 15.7454 16.6559 16.1568 16.2445C16.5682 15.8331 16.7993 15.2751 16.7993 14.6933V4.45577C16.7993 3.87396 16.5682 3.31597 16.1568 2.90456C15.7454 2.49315 15.1874 2.26202 14.6056 2.26202ZM15.3368 14.6933C15.3368 14.8872 15.2598 15.0732 15.1226 15.2103C14.9855 15.3475 14.7995 15.4245 14.6056 15.4245H4.36807C4.17413 15.4245 3.98813 15.3475 3.85099 15.2103C3.71386 15.0732 3.63682 14.8872 3.63682 14.6933V4.45577C3.63682 4.26183 3.71386 4.07584 3.85099 3.9387C3.98813 3.80157 4.17413 3.72452 4.36807 3.72452H14.6056C14.7995 3.72452 14.9855 3.80157 15.1226 3.9387C15.2598 4.07584 15.3368 4.26183 15.3368 4.45577V14.6933Z" fill="#A4B4CB"/>
</svg>
