<svg width="19" height="18" viewBox="0 0 19 18" fill="none" xmlns="http://www.w3.org/2000/svg">
<path d="M15.6071 5.91721L11.2196 2.07083C10.8174 1.71109 10.2967 1.51221 9.7571 1.51221C9.21749 1.51221 8.6968 1.71109 8.2946 2.07083L3.9071 5.91721C3.67483 6.12494 3.48948 6.37976 3.3634 6.66472C3.23731 6.94968 3.17337 7.25823 3.17585 7.56983V13.961C3.17585 14.5428 3.40698 15.1008 3.81839 15.5122C4.22979 15.9236 4.78778 16.1547 5.3696 16.1547H14.1446C14.7264 16.1547 15.2844 15.9236 15.6958 15.5122C16.1072 15.1008 16.3384 14.5428 16.3384 13.961V7.56252C16.3398 7.25215 16.2754 6.94501 16.1493 6.66139C16.0232 6.37776 15.8384 6.12412 15.6071 5.91721ZM11.2196 14.6922H8.2946V11.036C8.2946 10.842 8.37164 10.656 8.50878 10.5189C8.64592 10.3817 8.83191 10.3047 9.02585 10.3047H10.4884C10.6823 10.3047 10.8683 10.3817 11.0054 10.5189C11.1426 10.656 11.2196 10.842 11.2196 11.036V14.6922ZM14.8759 13.961C14.8759 14.1549 14.7988 14.3409 14.6617 14.478C14.5245 14.6152 14.3385 14.6922 14.1446 14.6922H12.6821V11.036C12.6821 10.4541 12.451 9.89615 12.0396 9.48474C11.6282 9.07333 11.0702 8.84221 10.4884 8.84221H9.02585C8.44403 8.84221 7.88604 9.07333 7.47463 9.48474C7.06323 9.89615 6.8321 10.4541 6.8321 11.036V14.6922H5.3696C5.17566 14.6922 4.98966 14.6152 4.85253 14.478C4.71539 14.3409 4.63835 14.1549 4.63835 13.961V7.56252C4.63848 7.45869 4.66072 7.35608 4.70359 7.26152C4.74646 7.16696 4.80897 7.08261 4.88698 7.01408L9.27448 3.17502C9.40792 3.05779 9.57947 2.99313 9.7571 2.99313C9.93473 2.99313 10.1063 3.05779 10.2397 3.17502L14.6272 7.01408C14.7052 7.08261 14.7677 7.16696 14.8106 7.26152C14.8535 7.35608 14.8757 7.45869 14.8759 7.56252V13.961Z" fill="#A4B4CB"/>
</svg>
