<svg width="19" height="19" viewBox="0 0 19 19" fill="none" xmlns="http://www.w3.org/2000/svg">
<path d="M9.48731 5.90576C9.29337 5.90576 9.10737 5.9828 8.97024 6.11994C8.8331 6.25708 8.75606 6.44307 8.75606 6.63701V9.56201C8.75606 9.75595 8.8331 9.94195 8.97024 10.0791C9.10737 10.2162 9.29337 10.2933 9.48731 10.2933C9.68125 10.2933 9.86724 10.2162 10.0044 10.0791C10.1415 9.94195 10.2186 9.75595 10.2186 9.56201V6.63701C10.2186 6.44307 10.1415 6.25708 10.0044 6.11994C9.86724 5.9828 9.68125 5.90576 9.48731 5.90576ZM10.1601 12.2091C10.1441 12.1625 10.1219 12.1183 10.0942 12.0775L10.0065 11.9678C9.90366 11.8664 9.77308 11.7976 9.63123 11.7703C9.48937 11.743 9.3426 11.7583 9.20943 11.8143C9.12082 11.8513 9.0392 11.9032 8.96812 11.9678C8.90035 12.0362 8.84673 12.1172 8.81034 12.2063C8.77395 12.2954 8.7555 12.3908 8.75606 12.487C8.75721 12.5826 8.77709 12.677 8.81456 12.7649C8.8474 12.8556 8.8998 12.938 8.96804 13.0063C9.03628 13.0745 9.11869 13.1269 9.20943 13.1598C9.29696 13.1984 9.39161 13.2184 9.48731 13.2184C9.58301 13.2184 9.67765 13.1984 9.76518 13.1598C9.85593 13.1269 9.93834 13.0745 10.0066 13.0063C10.0748 12.938 10.1272 12.8556 10.1601 12.7649C10.1975 12.677 10.2174 12.5826 10.2186 12.487C10.2221 12.4383 10.2221 12.3894 10.2186 12.3408C10.206 12.2941 10.1862 12.2497 10.1601 12.2091ZM9.48731 2.24951C8.04103 2.24951 6.62723 2.67838 5.4247 3.48189C4.22217 4.2854 3.2849 5.42745 2.73144 6.76364C2.17797 8.09982 2.03316 9.57012 2.31532 10.9886C2.59747 12.4071 3.29392 13.7101 4.31659 14.7327C5.33926 15.7554 6.64222 16.4519 8.06071 16.734C9.4792 17.0162 10.9495 16.8713 12.2857 16.3179C13.6219 15.7644 14.7639 14.8272 15.5674 13.6246C16.3709 12.4221 16.7998 11.0083 16.7998 9.56201C16.7998 8.60172 16.6107 7.65083 16.2432 6.76364C15.8757 5.87645 15.3371 5.07032 14.658 4.39129C13.979 3.71227 13.1729 3.17363 12.2857 2.80614C11.3985 2.43866 10.4476 2.24951 9.48731 2.24951ZM9.48731 15.412C8.33029 15.412 7.19925 15.0689 6.23722 14.4261C5.27519 13.7833 4.52539 12.8697 4.08261 11.8007C3.63984 10.7318 3.52399 9.55552 3.74971 8.42073C3.97544 7.28594 4.5326 6.24357 5.35073 5.42544C6.16887 4.6073 7.21124 4.05014 8.34603 3.82442C9.48082 3.59869 10.6571 3.71454 11.726 4.15732C12.795 4.60009 13.7086 5.3499 14.3514 6.31193C14.9942 7.27395 15.3373 8.40499 15.3373 9.56201C15.3373 11.1135 14.721 12.6015 13.6239 13.6986C12.5268 14.7957 11.0388 15.412 9.48731 15.412Z" fill="#A4B4CB"/>
</svg>
