<svg width="19" height="18" viewBox="0 0 19 18" fill="none" xmlns="http://www.w3.org/2000/svg">
<path d="M8.02402 5.85015H12.4115C12.6055 5.85015 12.7915 5.7731 12.9286 5.63597C13.0657 5.49883 13.1428 5.31284 13.1428 5.1189C13.1428 4.92496 13.0657 4.73896 12.9286 4.60182C12.7915 4.46469 12.6055 4.38765 12.4115 4.38765H8.02402C7.83008 4.38765 7.64409 4.46469 7.50695 4.60182C7.36982 4.73896 7.29277 4.92496 7.29277 5.1189C7.29277 5.31284 7.36982 5.49883 7.50695 5.63597C7.64409 5.7731 7.83008 5.85015 8.02402 5.85015ZM6.56152 8.77515H12.4115C12.6055 8.77515 12.7915 8.6981 12.9286 8.56097C13.0657 8.42383 13.1428 8.23784 13.1428 8.0439C13.1428 7.84996 13.0657 7.66396 12.9286 7.52682C12.7915 7.38969 12.6055 7.31265 12.4115 7.31265H6.56152C6.36758 7.31265 6.18159 7.38969 6.04445 7.52682C5.90732 7.66396 5.83027 7.84996 5.83027 8.0439C5.83027 8.23784 5.90732 8.42383 6.04445 8.56097C6.18159 8.6981 6.36758 8.77515 6.56152 8.77515ZM6.56152 11.7001H12.4115C12.6055 11.7001 12.7915 11.6231 12.9286 11.486C13.0657 11.3488 13.1428 11.1628 13.1428 10.9689C13.1428 10.775 13.0657 10.589 12.9286 10.4518C12.7915 10.3147 12.6055 10.2376 12.4115 10.2376H6.56152C6.36758 10.2376 6.18159 10.3147 6.04445 10.4518C5.90732 10.589 5.83027 10.775 5.83027 10.9689C5.83027 11.1628 5.90732 11.3488 6.04445 11.486C6.18159 11.6231 6.36758 11.7001 6.56152 11.7001ZM15.3365 1.46265H3.63652C3.44258 1.46265 3.25659 1.53969 3.11945 1.67682C2.98232 1.81396 2.90527 1.99996 2.90527 2.1939V15.3564C2.90527 15.4922 2.94309 15.6253 3.01449 15.7408C3.08588 15.8564 3.18803 15.9497 3.3095 16.0104C3.43096 16.0712 3.56694 16.0969 3.70219 16.0847C3.83745 16.0725 3.96663 16.0229 4.07527 15.9414L5.58896 14.808L7.09534 15.9414C7.22191 16.0363 7.37587 16.0876 7.53409 16.0876C7.69231 16.0876 7.84626 16.0363 7.97284 15.9414L9.48652 14.808L11.0002 15.9414C11.1268 16.0363 11.2807 16.0876 11.439 16.0876C11.5972 16.0876 11.7511 16.0363 11.8777 15.9414L13.3841 14.808L14.8978 15.9414C15.0069 16.0228 15.1367 16.072 15.2723 16.0837C15.408 16.0953 15.5442 16.0688 15.6656 16.0072C15.7862 15.9464 15.8876 15.8535 15.9586 15.7386C16.0296 15.6237 16.0674 15.4914 16.0678 15.3564V2.1939C16.0678 1.99996 15.9907 1.81396 15.8536 1.67682C15.7165 1.53969 15.5305 1.46265 15.3365 1.46265ZM14.6053 13.8939L13.8228 13.3089C13.6963 13.214 13.5423 13.1626 13.3841 13.1626C13.2259 13.1626 13.0719 13.214 12.9453 13.3089L11.439 14.4423L9.92527 13.3089C9.7987 13.214 9.64474 13.1626 9.48652 13.1626C9.3283 13.1626 9.17435 13.214 9.04777 13.3089L7.53409 14.4423L6.02771 13.3089C5.90113 13.214 5.74718 13.1626 5.58896 13.1626C5.43074 13.1626 5.27679 13.214 5.15021 13.3089L4.36777 13.8939V2.92515H14.6053V13.8939Z" fill="#A4B4CB"/>
</svg>
