<svg width="19" height="19" viewBox="0 0 19 19" fill="none" xmlns="http://www.w3.org/2000/svg">
<path d="M6.58243 8.99379C6.4378 8.99379 6.29642 9.03667 6.17617 9.11702C6.05591 9.19738 5.96219 9.31158 5.90684 9.4452C5.85149 9.57882 5.83701 9.72585 5.86523 9.8677C5.89344 10.0095 5.96309 10.1398 6.06536 10.2421C6.16762 10.3444 6.29792 10.414 6.43977 10.4422C6.58162 10.4705 6.72865 10.456 6.86227 10.4006C6.99588 10.3453 7.11009 10.2516 7.19044 10.1313C7.27079 10.011 7.31368 9.86966 7.31368 9.72504C7.31368 9.5311 7.23664 9.3451 7.0995 9.20797C6.96236 9.07083 6.77637 8.99379 6.58243 8.99379ZM9.50743 8.99379C9.3628 8.99379 9.22142 9.03667 9.10117 9.11702C8.98091 9.19738 8.88719 9.31158 8.83184 9.4452C8.77649 9.57882 8.76201 9.72585 8.79023 9.8677C8.81844 10.0095 8.88809 10.1398 8.99036 10.2421C9.09262 10.3444 9.22292 10.414 9.36477 10.4422C9.50662 10.4705 9.65365 10.456 9.78727 10.4006C9.92088 10.3453 10.0351 10.2516 10.1154 10.1313C10.1958 10.011 10.2387 9.86966 10.2387 9.72504C10.2387 9.5311 10.1616 9.3451 10.0245 9.20797C9.88736 9.07083 9.70137 8.99379 9.50743 8.99379ZM12.4324 8.99379C12.2878 8.99379 12.1464 9.03667 12.0262 9.11702C11.9059 9.19738 11.8122 9.31158 11.7568 9.4452C11.7015 9.57882 11.687 9.72585 11.7152 9.8677C11.7434 10.0095 11.8131 10.1398 11.9154 10.2421C12.0176 10.3444 12.1479 10.414 12.2898 10.4422C12.4316 10.4705 12.5786 10.456 12.7123 10.4006C12.8459 10.3453 12.9601 10.2516 13.0404 10.1313C13.1208 10.011 13.1637 9.86966 13.1637 9.72504C13.1637 9.5311 13.0866 9.3451 12.9495 9.20797C12.8124 9.07083 12.6264 8.99379 12.4324 8.99379ZM9.50743 2.41254C8.54714 2.41254 7.59625 2.60168 6.70905 2.96917C5.82186 3.33666 5.01574 3.87529 4.33671 4.55432C2.96535 5.92568 2.19493 7.78564 2.19493 9.72504C2.18853 11.4136 2.77319 13.0512 3.84755 14.3538L2.38505 15.8163C2.28359 15.9192 2.21485 16.0498 2.18752 16.1916C2.16019 16.3335 2.17549 16.4802 2.23149 16.6134C2.29223 16.745 2.39069 16.8555 2.51437 16.9311C2.63806 17.0066 2.78139 17.0436 2.92618 17.0375H9.50743C11.4468 17.0375 13.3068 16.2671 14.6781 14.8958C16.0495 13.5244 16.8199 11.6644 16.8199 9.72504C16.8199 7.78564 16.0495 5.92568 14.6781 4.55432C13.3068 3.18296 11.4468 2.41254 9.50743 2.41254ZM9.50743 15.575H4.68849L5.36855 14.895C5.43765 14.8273 5.49262 14.7465 5.53027 14.6574C5.56793 14.5682 5.58753 14.4725 5.58793 14.3758C5.58518 14.1829 5.50633 13.9989 5.36855 13.8639C4.41104 12.9075 3.81477 11.6486 3.68133 10.3018C3.54789 8.95507 3.88554 7.60368 4.63674 6.47794C5.38794 5.35219 6.50622 4.52172 7.80107 4.12803C9.09591 3.73434 10.4872 3.80177 11.7379 4.31884C12.9886 4.83592 14.0213 5.77064 14.6601 6.96376C15.2989 8.15688 15.5043 9.53458 15.2413 10.8621C14.9782 12.1897 14.263 13.385 13.2175 14.2443C12.1719 15.1037 10.8608 15.574 9.50743 15.575Z" fill="#A4B4CB"/>
</svg>
