<svg width="19" height="19" viewBox="0 0 19 19" fill="none" xmlns="http://www.w3.org/2000/svg">
<path d="M16.3026 7.72199L14.9205 7.2613L15.5713 5.95968C15.6373 5.82344 15.6593 5.67008 15.6345 5.52076C15.6096 5.37145 15.539 5.23353 15.4324 5.12605L13.8748 3.56849C13.7668 3.46033 13.6275 3.38875 13.4767 3.36383C13.3258 3.33891 13.171 3.36189 13.0339 3.42955L11.7322 4.08036L11.2716 2.6983C11.2229 2.55424 11.1306 2.42893 11.0074 2.33981C10.8842 2.25068 10.7362 2.20218 10.5842 2.20105H8.39043C8.23713 2.20066 8.08758 2.24845 7.96292 2.33768C7.83826 2.42691 7.7448 2.55306 7.69574 2.6983L7.23506 4.08036L5.93343 3.42955C5.79719 3.36358 5.64383 3.34151 5.49452 3.3664C5.3452 3.39128 5.20729 3.4619 5.09981 3.56849L3.54224 5.12605C3.43408 5.23411 3.36251 5.37334 3.33759 5.52419C3.31266 5.67503 3.33565 5.82989 3.40331 5.96699L4.05412 7.26862L2.67206 7.7293C2.528 7.77796 2.40268 7.87031 2.31356 7.99351C2.22444 8.11671 2.17594 8.26463 2.17481 8.41668V10.6104C2.17441 10.7637 2.22221 10.9133 2.31144 11.0379C2.40066 11.1626 2.52682 11.2561 2.67206 11.3051L4.05412 11.7658L3.40331 13.0674C3.33733 13.2037 3.31527 13.357 3.34015 13.5063C3.36504 13.6557 3.43565 13.7936 3.54224 13.9011L5.09981 15.4586C5.20786 15.5668 5.3471 15.6384 5.49794 15.6633C5.64878 15.6882 5.80364 15.6652 5.94074 15.5976L7.24237 14.9467L7.70306 16.3288C7.75211 16.474 7.84558 16.6002 7.97024 16.6894C8.09489 16.7787 8.24444 16.8264 8.39774 16.8261H10.5915C10.7448 16.8264 10.8943 16.7787 11.019 16.6894C11.1437 16.6002 11.2371 16.474 11.2862 16.3288L11.7469 14.9467L13.0485 15.5976C13.1839 15.6619 13.3357 15.683 13.4835 15.6582C13.6313 15.6333 13.7679 15.5637 13.8748 15.4586L15.4324 13.9011C15.5405 13.793 15.6121 13.6538 15.637 13.5029C15.662 13.3521 15.639 13.1972 15.5713 13.0601L14.9205 11.7585L16.3026 11.2978C16.4466 11.2491 16.5719 11.1568 16.6611 11.0336C16.7502 10.9104 16.7987 10.7625 16.7998 10.6104V8.41668C16.8002 8.26338 16.7524 8.11383 16.6632 7.98917C16.574 7.86451 16.4478 7.77105 16.3026 7.72199ZM15.3373 10.0839L14.4598 10.3764C14.258 10.4419 14.0729 10.5504 13.9173 10.6946C13.7616 10.8387 13.6392 11.015 13.5585 11.2112C13.4778 11.4074 13.4408 11.6188 13.4499 11.8307C13.4591 12.0427 13.5142 12.2501 13.6116 12.4386L14.0284 13.2722L13.224 14.0766L12.4123 13.6378C12.2248 13.5444 12.0194 13.4923 11.81 13.4852C11.6006 13.478 11.3921 13.516 11.1987 13.5964C11.0052 13.6768 10.8313 13.7979 10.6887 13.9514C10.5461 14.1049 10.4381 14.2872 10.3721 14.4861L10.0796 15.3636H8.91693L8.62443 14.4861C8.55898 14.2843 8.45041 14.0991 8.30626 13.9435C8.16212 13.7879 7.98584 13.6655 7.78965 13.5848C7.59347 13.5041 7.38208 13.467 7.17014 13.4762C6.9582 13.4853 6.7508 13.5405 6.56231 13.6378L5.72868 14.0546L4.92431 13.2502L5.36306 12.4386C5.46038 12.2501 5.51554 12.0427 5.5247 11.8307C5.53386 11.6188 5.4968 11.4074 5.4161 11.2112C5.3354 11.015 5.21299 10.8387 5.05735 10.6946C4.90172 10.5504 4.71659 10.4419 4.51481 10.3764L3.63731 10.0839V8.94318L4.51481 8.65068C4.71659 8.58522 4.90172 8.47666 5.05735 8.33251C5.21299 8.18836 5.3354 8.01208 5.4161 7.8159C5.4968 7.61971 5.53386 7.40832 5.5247 7.19639C5.51554 6.98445 5.46038 6.77704 5.36306 6.58855L4.94624 5.77686L5.75062 4.97249L6.56231 5.3893C6.7508 5.48663 6.9582 5.54178 7.17014 5.55094C7.38208 5.5601 7.59347 5.52305 7.78965 5.44235C7.98584 5.36165 8.16212 5.23923 8.30626 5.0836C8.45041 4.92797 8.55898 4.74284 8.62443 4.54105L8.91693 3.66355H10.0577L10.3502 4.54105C10.4156 4.74284 10.5242 4.92797 10.6684 5.0836C10.8125 5.23923 10.9888 5.36165 11.185 5.44235C11.3811 5.52305 11.5925 5.5601 11.8045 5.55094C12.0164 5.54178 12.2238 5.48663 12.4123 5.3893L13.2459 4.97249L14.0503 5.77686L13.6116 6.58855C13.5181 6.77608 13.4661 6.98149 13.4589 7.19087C13.4518 7.40026 13.4897 7.60874 13.5702 7.8022C13.6506 7.99565 13.7717 8.16957 13.9251 8.31217C14.0786 8.45477 14.261 8.56273 14.4598 8.62874L15.3373 8.92124V10.0839ZM9.48731 6.58855C8.9088 6.58855 8.34328 6.7601 7.86227 7.0815C7.38125 7.40291 7.00635 7.85973 6.78496 8.3942C6.56357 8.92868 6.50565 9.5168 6.61851 10.0842C6.73137 10.6516 7.00995 11.1728 7.41902 11.5818C7.82809 11.9909 8.34927 12.2695 8.91667 12.3823C9.48406 12.4952 10.0722 12.4373 10.6067 12.2159C11.1411 11.9945 11.598 11.6196 11.9194 11.1386C12.2408 10.6576 12.4123 10.0921 12.4123 9.51355C12.4123 8.73779 12.1041 7.99381 11.5556 7.44527C11.0071 6.89672 10.2631 6.58855 9.48731 6.58855ZM9.48731 10.9761C9.19805 10.9761 8.91529 10.8903 8.67479 10.7296C8.43428 10.5689 8.24683 10.3405 8.13613 10.0732C8.02544 9.80599 7.99648 9.51193 8.05291 9.22823C8.10934 8.94454 8.24863 8.68394 8.45316 8.47941C8.6577 8.27487 8.91829 8.13558 9.20199 8.07915C9.48568 8.02272 9.77974 8.05169 10.047 8.16238C10.3142 8.27307 10.5426 8.46052 10.7033 8.70103C10.864 8.94154 10.9498 9.2243 10.9498 9.51355C10.9498 9.90143 10.7957 10.2734 10.5215 10.5477C10.2472 10.822 9.87519 10.9761 9.48731 10.9761Z" fill="#A4B4CB"/>
</svg>
