<svg width="38" height="13" viewBox="0 0 38 13" fill="none" xmlns="http://www.w3.org/2000/svg">
<path d="M16.7363 12.5332H13.7539L15.6193 0.999023H18.6015L16.7363 12.5332Z" fill="white"/>
<path d="M27.5479 1.28109C26.9596 1.04772 26.0266 0.790039 24.8729 0.790039C21.9277 0.790039 19.8537 2.36057 19.841 4.60595C19.8166 6.26258 21.3259 7.18272 22.4548 7.7351C23.6087 8.29954 24.0009 8.66795 24.0009 9.17108C23.9891 9.94378 23.0685 10.3 22.2099 10.3C21.0192 10.3 20.3812 10.1163 19.4116 9.68643L19.0189 9.50214L18.6016 12.0913C19.301 12.41 20.5898 12.6928 21.9277 12.7052C25.057 12.7052 27.0943 11.1589 27.1185 8.76613C27.1304 7.45312 26.3334 6.44704 24.6151 5.62491C23.572 5.09717 22.9332 4.74131 22.9332 4.20133C22.9454 3.71044 23.4735 3.20764 24.6509 3.20764C25.6205 3.18301 26.3329 3.41606 26.8725 3.64928L27.1423 3.77176L27.5479 1.28109Z" fill="white"/>
<path d="M31.5087 8.44704C31.7544 7.78442 32.6994 5.21988 32.6994 5.21988C32.6871 5.2445 32.9446 4.54502 33.0918 4.11561L33.3003 5.10947C33.3003 5.10947 33.865 7.87036 33.9877 8.44704H31.5087ZM35.1901 0.999023H32.8832C32.1719 0.999023 31.6314 1.20745 31.3245 1.95602L26.8945 12.533H30.0238C30.0238 12.533 30.539 11.1094 30.6498 10.8028H34.4789C34.5645 11.2078 34.8347 12.533 34.8347 12.533H37.5961L35.1901 0.999023Z" fill="white"/>
<path d="M11.2617 0.999023L8.34093 8.86422L8.02176 7.26906C7.48178 5.42846 5.78829 3.42869 3.89844 2.43435L6.57372 12.521H9.72749L14.4153 0.999023H11.2617Z" fill="white"/>
<path d="M5.62868 0.999023H0.830339L0.78125 1.23207C4.52426 2.18923 7.00318 4.49642 8.02166 7.26955L6.97855 1.96858C6.80682 1.23191 6.27907 1.02332 5.62868 0.999023Z" fill="white"/>
</svg>
