<svg width="19" height="19" viewBox="0 0 19 19" fill="none" xmlns="http://www.w3.org/2000/svg">
<path d="M5.83057 11.1371H8.02432C8.21826 11.1371 8.40425 11.06 8.54139 10.9229C8.67852 10.7858 8.75557 10.5998 8.75557 10.4058C8.75557 10.2119 8.67852 10.0259 8.54139 9.88876C8.40425 9.75163 8.21826 9.67458 8.02432 9.67458H5.83057C5.63663 9.67458 5.45063 9.75163 5.31349 9.88876C5.17636 10.0259 5.09932 10.2119 5.09932 10.4058C5.09932 10.5998 5.17636 10.7858 5.31349 10.9229C5.45063 11.06 5.63663 11.1371 5.83057 11.1371ZM14.6056 3.82458H4.36807C3.78625 3.82458 3.22826 4.05571 2.81685 4.46712C2.40544 4.87853 2.17432 5.43652 2.17432 6.01833V12.5996C2.17432 13.1814 2.40544 13.7394 2.81685 14.1508C3.22826 14.5622 3.78625 14.7933 4.36807 14.7933H14.6056C15.1874 14.7933 15.7454 14.5622 16.1568 14.1508C16.5682 13.7394 16.7993 13.1814 16.7993 12.5996V6.01833C16.7993 5.43652 16.5682 4.87853 16.1568 4.46712C15.7454 4.05571 15.1874 3.82458 14.6056 3.82458ZM15.3368 12.5996C15.3368 12.7935 15.2598 12.9795 15.1226 13.1167C14.9855 13.2538 14.7995 13.3308 14.6056 13.3308H4.36807C4.17413 13.3308 3.98813 13.2538 3.85099 13.1167C3.71386 12.9795 3.63682 12.7935 3.63682 12.5996V8.21208H15.3368V12.5996ZM15.3368 6.74958H3.63682V6.01833C3.63682 5.8244 3.71386 5.6384 3.85099 5.50126C3.98813 5.36413 4.17413 5.28708 4.36807 5.28708H14.6056C14.7995 5.28708 14.9855 5.36413 15.1226 5.50126C15.2598 5.6384 15.3368 5.8244 15.3368 6.01833V6.74958Z" fill="#A4B4CB"/>
</svg>
